<svg xmlns="http://www.w3.org/2000/svg" width="390" height="610" viewBox="0 0 390 610" shape-rendering="crispEdges">
  <!-- Project-owned Pokemon-free orchard far layer. -->
  <rect width="390" height="610" fill="#a99d73"/>
  <rect width="390" height="118" fill="#6f755f"/>
  <rect y="118" width="390" height="88" fill="#828062"/>
  <polygon points="0,178 58,132 116,174 174,126 240,176 302,138 390,168 390,244 0,244" fill="#505b49"/>
  <rect y="206" width="390" height="404" fill="#6c6349"/>
  <rect y="260" width="390" height="350" fill="#796b4c"/>
  <!-- Distant orchard rows -->
  <g fill="#344434">
    <rect x="0" y="204" width="46" height="92"/><rect x="62" y="190" width="48" height="108"/>
    <rect x="126" y="206" width="46" height="88"/><rect x="192" y="188" width="50" height="112"/>
    <rect x="258" y="200" width="48" height="96"/><rect x="326" y="184" width="64" height="116"/>
  </g>
  <g fill="#445440">
    <rect x="8" y="184" width="34" height="38"/><rect x="70" y="168" width="36" height="42"/>
    <rect x="132" y="186" width="36" height="38"/><rect x="198" y="166" width="40" height="44"/>
    <rect x="264" y="180" width="38" height="40"/><rect x="334" y="162" width="48" height="48"/>
  </g>
  <!-- Route bands -->
  <polygon points="0,610 222,610 206,414 176,304 112,304 138,416" fill="#8f7954"/>
  <polygon points="242,610 390,610 390,300 328,300 292,410" fill="#5b5747"/>
  <!-- Distant stone wall, intentionally behind midground props -->
  <g fill="#716b59">
    <rect x="238" y="270" width="152" height="18"/>
    <rect x="252" y="248" width="34" height="18"/><rect x="294" y="248" width="34" height="18"/><rect x="336" y="248" width="34" height="18"/>
  </g>
  <!-- Dry grass pixel clusters -->
  <g fill="#8d815d">
    <rect x="16" y="352" width="6" height="42"/><rect x="26" y="364" width="5" height="31"/>
    <rect x="88" y="378" width="5" height="36"/><rect x="102" y="368" width="5" height="46"/>
    <rect x="208" y="346" width="5" height="40"/><rect x="218" y="356" width="5" height="30"/>
  </g>
</svg>
