<svg xmlns="http://www.w3.org/2000/svg" width="390" height="844" viewBox="0 0 390 844" shape-rendering="crispEdges">
  <!-- Project-owned Pokemon-free orchard far layer. -->
  <!-- muted overcast sky -->
  <rect width="390" height="844" fill="#655d45"/>
  <rect width="390" height="82" fill="#6a7261"/>
  <rect y="82" width="390" height="54" fill="#747664"/>
  <rect y="136" width="390" height="64" fill="#83806a"/>
  <g fill="#9a9275" opacity="0.52">
    <rect x="24" y="76" width="62" height="4"/><rect x="92" y="76" width="26" height="4"/>
    <rect x="246" y="102" width="72" height="4"/><rect x="330" y="102" width="28" height="4"/>
  </g>
  <g fill="#606b5d" opacity="0.66">
    <rect x="8" y="118" width="42" height="3"/><rect x="58" y="118" width="14" height="3"/>
    <rect x="188" y="72" width="36" height="3"/><rect x="232" y="72" width="14" height="3"/>
  </g>

  <!-- distant ridge and hedgerows -->
  <polygon points="0,194 46,154 88,182 132,139 174,184 220,146 266,188 322,142 390,180 390,246 0,246" fill="#4a5547"/>
  <polygon points="0,218 62,180 112,211 166,170 220,214 280,175 334,208 390,182 390,260 0,260" fill="#58604d"/>
  <g fill="#66705a">
    <rect x="18" y="172" width="16" height="5"/><rect x="76" y="164" width="18" height="5"/>
    <rect x="154" y="176" width="17" height="5"/><rect x="238" y="170" width="17" height="5"/>
    <rect x="316" y="162" width="20" height="5"/>
  </g>

  <!-- far orchard rows use stepped canopies rather than single rectangles -->
  <g fill="#2d3a30">
    <rect x="0" y="228" width="50" height="122"/><rect x="58" y="214" width="52" height="136"/>
    <rect x="118" y="232" width="52" height="118"/><rect x="180" y="210" width="60" height="140"/>
    <rect x="248" y="226" width="56" height="124"/><rect x="314" y="208" width="76" height="142"/>
  </g>
  <g fill="#3c4d3a">
    <rect x="0" y="202" width="38" height="48"/><rect x="12" y="190" width="28" height="20"/><rect x="30" y="210" width="28" height="34"/>
    <rect x="60" y="190" width="44" height="56"/><rect x="72" y="180" width="25" height="18"/><rect x="96" y="202" width="24" height="38"/>
    <rect x="120" y="208" width="44" height="48"/><rect x="134" y="198" width="26" height="18"/><rect x="158" y="218" width="22" height="32"/>
    <rect x="184" y="186" width="48" height="60"/><rect x="198" y="176" width="28" height="18"/><rect x="226" y="202" width="24" height="38"/>
    <rect x="250" y="202" width="46" height="50"/><rect x="266" y="190" width="25" height="20"/><rect x="292" y="216" width="22" height="32"/>
    <rect x="318" y="184" width="62" height="64"/><rect x="336" y="172" width="30" height="20"/><rect x="372" y="202" width="18" height="42"/>
  </g>
  <g fill="#526044">
    <rect x="12" y="184" width="17" height="6"/><rect x="72" y="174" width="19" height="6"/>
    <rect x="136" y="192" width="18" height="6"/><rect x="200" y="170" width="20" height="6"/>
    <rect x="270" y="184" width="18" height="6"/><rect x="342" y="166" width="20" height="6"/>
  </g>
  <g fill="#73805d" opacity="0.4">
    <rect x="28" y="218" width="8" height="4"/><rect x="86" y="210" width="9" height="4"/>
    <rect x="150" y="224" width="8" height="4"/><rect x="216" y="210" width="9" height="4"/>
    <rect x="280" y="218" width="8" height="4"/><rect x="354" y="206" width="9" height="4"/>
  </g>

  <!-- ground plane -->
  <rect y="350" width="390" height="494" fill="#665d45"/>
  <g fill="#71674b">
    <rect x="0" y="382" width="86" height="10"/><rect x="304" y="370" width="86" height="10"/>
    <rect x="12" y="476" width="66" height="8"/><rect x="306" y="468" width="68" height="8"/>
    <rect x="0" y="602" width="64" height="9"/><rect x="318" y="590" width="72" height="9"/>
    <rect x="14" y="716" width="72" height="8"/><rect x="302" y="710" width="88" height="8"/>
  </g>
  <g fill="#867a57">
    <rect x="24" y="424" width="28" height="4"/><rect x="334" y="410" width="26" height="4"/>
    <rect x="40" y="552" width="24" height="4"/><rect x="300" y="542" width="28" height="4"/>
    <rect x="20" y="668" width="30" height="4"/><rect x="336" y="654" width="25" height="4"/>
  </g>

  <!-- route: broad outer dirt, compacted center, broken ruts -->
  <polygon points="38,844 274,844 250,696 230,566 210,438 122,438 108,566 78,696" fill="#8b7350"/>
  <polygon points="96,844 238,844 224,704 206,570 190,458 144,458 128,572 112,706" fill="#a28659"/>
  <g fill="#6d5941">
    <polygon points="118,844 128,844 143,706 152,518 146,518 134,706"/>
    <polygon points="208,844 218,844 202,706 188,518 182,518 194,706"/>
  </g>
  <g fill="#705b42">
    <rect x="136" y="520" width="18" height="5"/><rect x="185" y="548" width="24" height="6"/>
    <rect x="120" y="608" width="24" height="6"/><rect x="192" y="650" width="28" height="7"/>
    <rect x="130" y="716" width="30" height="7"/><rect x="198" y="768" width="34" height="8"/>
  </g>
  <g fill="#c0a06b" opacity="0.38">
    <rect x="143" y="516" width="7" height="2"/><rect x="190" y="544" width="8" height="2"/>
    <rect x="126" y="604" width="8" height="2"/><rect x="198" y="646" width="9" height="2"/>
  </g>

  <!-- far stone retaining wall with alternating courses -->
  <g fill="#706a58">
    <rect x="234" y="324" width="156" height="20"/>
    <rect x="246" y="302" width="38" height="18"/><rect x="290" y="302" width="38" height="18"/><rect x="334" y="302" width="40" height="18"/>
  </g>
  <g fill="#807967">
    <rect x="250" y="304" width="26" height="4"/><rect x="296" y="304" width="24" height="4"/><rect x="340" y="304" width="27" height="4"/>
  </g>
  <g fill="#48483f">
    <rect x="272" y="324" width="5" height="20"/><rect x="322" y="324" width="5" height="20"/><rect x="366" y="324" width="5" height="20"/>
  </g>

  <!-- field markers, weeds, fallen fruit-colored flecks (generic, not species-specific) -->
  <g fill="#93885e">
    <rect x="22" y="458" width="4" height="48"/><rect x="34" y="470" width="4" height="34"/>
    <rect x="282" y="454" width="4" height="50"/><rect x="300" y="468" width="4" height="34"/>
    <rect x="66" y="580" width="4" height="42"/><rect x="272" y="584" width="4" height="38"/>
  </g>
  <g fill="#9f6c43" opacity="0.6">
    <rect x="58" y="402" width="5" height="4"/><rect x="314" y="438" width="5" height="4"/>
    <rect x="52" y="636" width="5" height="4"/><rect x="290" y="674" width="5" height="4"/>
  </g>
</svg>
