<svg xmlns="http://www.w3.org/2000/svg" width="390" height="610" viewBox="0 0 390 610" shape-rendering="crispEdges">
  <!-- Project-owned transparent foreground occlusion layer. Can cover Pokemon/human at runtime. -->
  <g fill="#1f2c24">
    <rect x="0" y="492" width="94" height="118"/><rect x="296" y="474" width="94" height="136"/>
    <rect x="46" y="522" width="72" height="88"/><rect x="264" y="524" width="70" height="86"/>
  </g>
  <g fill="#30402f">
    <rect x="8" y="460" width="18" height="104"/><rect x="36" y="482" width="16" height="92"/>
    <rect x="72" y="470" width="18" height="100"/><rect x="306" y="444" width="18" height="120"/>
    <rect x="338" y="466" width="16" height="104"/><rect x="366" y="450" width="16" height="116"/>
  </g>
  <g fill="#43523a">
    <rect x="18" y="510" width="10" height="58"/><rect x="60" y="500" width="10" height="70"/>
    <rect x="102" y="526" width="9" height="44"/><rect x="280" y="530" width="9" height="40"/>
    <rect x="322" y="500" width="10" height="70"/><rect x="360" y="492" width="10" height="78"/>
  </g>
  <!-- Small airborne dust/light fragments; atmosphere remains separate from background. -->
  <g fill="#c3b27c" opacity="0.45">
    <rect x="72" y="332" width="3" height="3"/><rect x="104" y="290" width="3" height="3"/>
    <rect x="148" y="346" width="3" height="3"/><rect x="188" y="312" width="3" height="3"/>
    <rect x="244" y="286" width="3" height="3"/><rect x="286" y="328" width="3" height="3"/>
  </g>
</svg>
